<svg xmlns="http://www.w3.org/2000/svg" xmlns:xlink="http://www.w3.org/1999/xlink" viewBox="0 0 215.85 232.83"><defs><style>.a{fill:#00a850;}.b{fill:url(#a);}.c{fill:#2ab34c;}.d{fill:#fcfcfa;}</style><linearGradient id="a" x1="13.18" y1="122.55" x2="229.03" y2="122.55" gradientUnits="userSpaceOnUse"><stop offset="0" stop-color="#009444"/><stop offset="1" stop-color="#39b54a" stop-opacity="0.7"/></linearGradient></defs><path class="a" d="M98.12,16.11h0l0,0h0S98.12,16.12,98.12,16.11ZM93,10h0Z" transform="translate(-13.18 -6.13)"/><path class="b" d="M225.1,142.09,93,10h0M76.76,16C41.67,29.74,20.52,63.76,13.18,99.06v27C23.28,210,126,246.05,127.06,154.09c-.41-7.27,10-2.08,14.29-3.78,4.67-.53,6.23.85,6,5.78-1.34,11,9.5,10.14,17.38,9.93,10,0,12-1.93,11.95-12-.27-8,10.67-8.63,9.11-18.65-.89-11.19-.32-22.73-2.34-33.66a9,9,0,0,0-1.33-3.26L179.13,94c-11.7-15.34-4.44-48.9-31.1-50.82q-25.93.12-51.9,0c-11,0-19.57,6.62-22.38,17.45-4.26,11.22-2.43,25.77-12,34.19-6.73,6.89-3.4,28.63-5.36,38.84-2,12.34,10.35,12.27,9.18,23-.35,13,13.6,8.93,21.87,9.36,16.76-3.18-3.19-19.19,18.36-15.42,3.29.64,9.72-2.46,9.39,3.06,2.36,25.78-15.58,51.06-43.1,38.82C11.22,164.68,11.73,71.59,65.23,36.11,133.42-14.31,230.08,46.82,216,129.92c-3.23,13.36-7.62,27.09-16.11,38.45-.81,1.12-1.23,2.74-3.35,2.25-3.38-.78-5.6,1.22-7.7,3.54-5.59,5.52-13.85-2.26-23.91,7-4,3.12-7,7.5-12.58,9-4.78,1.3-5.72,6-2.5,9.79,4.14,4.07-6.77,10.15-9,13.7-2.74,2.61-3.29,5.34-.59,8.11,6.89,6.51,14.3-7.77,20.09-11.2,4.22,4.55,10.58,6.48,3.33,12.12-4.36,4.9-13.57,10.2-5.56,16.26h4c4.45-1.53,11.77-15.08,15.48-11.2,11.21,7.63,9.46-5.55,15.31-10,6.89-6.41,10.7-13.87,8.57-23.53-.23-1-.32-2.4.49-2.81,6.66-3.39,4.06-11.36,8.14-16.09a89,89,0,0,0,15-33.24s2.5-9.82,3-13.19c1.09-7.42.92-29.84.92-29.84-8.38-46.6-43.34-82.91-89.26-92.24a34.13,34.13,0,0,0-6.84-.69h-21.5A84,84,0,0,0,99,8C90.17,10.07,76.76,16,76.76,16ZM179.13,94m-3.88,28c1.75,9.79-8.09,12.08-16.57,11.79-3-.55-18,0-11.25-7C153.17,120.94,170.85,110.25,175.25,122Zm-82,10.51c-8.55.88-20,3.88-25.52-4.72C59.81,102.94,108.92,128.52,93.23,132.5Zm21-43.28c-10,0-19.9-.11-29.85-.13-2.08,0-4.17.14-3.55-3,3.56-10,2-24,12.21-29.93q25.83,0,51.64,0c11.27-.88,11.72,10.95,14.32,19a70.32,70.32,0,0,0,3,12.94c-1.66,2.1-4,1.11-6,1.12C142.13,89.31,128.2,89.25,114.27,89.22ZM98.09,16.13l0,0h0s0,0,0,0Z" transform="translate(-13.18 -6.13)"/><path class="c" d="M98.13,16.13l0,0h0S98.13,16.12,98.13,16.13Z" transform="translate(-13.18 -6.13)"/><path class="c" d="M93,10h0Z" transform="translate(-13.18 -6.13)"/><path class="d" d="M162.05,88.08c-1.66,2.1-4,1.11-6,1.12-23.88.17-47.76,0-71.64-.11-2.08,0-4.17.14-3.55-3,1.46-6.22,3-12.42,4.35-18.68,1-4.92,3.4-8.79,7.86-11.25q25.83,0,51.64,0c11.27-.88,11.72,10.95,14.32,19A70.32,70.32,0,0,0,162.05,88.08Z" transform="translate(-13.18 -6.13)"/><path class="d" d="M170.19,132.11c-2.84,1.93-31.33,3.83-22.76-5.37,5.74-5.8,23.42-16.49,27.82-4.75A8.88,8.88,0,0,1,170.19,132.11Z" transform="translate(-13.18 -6.13)"/><path class="d" d="M93.23,132.5c-8.55.88-20,3.88-25.52-4.72C59.81,102.94,108.92,128.52,93.23,132.5Z" transform="translate(-13.18 -6.13)"/><path class="c" d="M98.13,16.13h0l0,0Z" transform="translate(-13.18 -6.13)"/><path class="c" d="M93,10h0" transform="translate(-13.18 -6.13)"/></svg>